<svg id="Grupo_82" data-name="Grupo 82" xmlns="http://www.w3.org/2000/svg" width="230" height="42.765" viewBox="0 0 230 42.765">
  <path id="Trazado_1" data-name="Trazado 1" d="M67.736,20.765l3.719,1.209a8,8,0,0,1-2.789,4.555,7.865,7.865,0,0,1-5.02,1.487,8.146,8.146,0,0,1-6.229-2.6A10.01,10.01,0,0,1,55,18.347,10.588,10.588,0,0,1,57.417,11a8.143,8.143,0,0,1,6.415-2.6A7.881,7.881,0,0,1,69.5,10.445a8.169,8.169,0,0,1,1.952,3.44l-3.812.93a3.545,3.545,0,0,0-1.395-2.324,4.156,4.156,0,0,0-2.6-.837,4.379,4.379,0,0,0-3.44,1.487c-.837,1.023-1.3,2.6-1.3,4.927,0,2.417.465,4.091,1.3,5.113a4.067,4.067,0,0,0,3.347,1.487,3.736,3.736,0,0,0,2.6-.93,5.3,5.3,0,0,0,1.58-2.975Zm23.985,6.973H87.538l-1.673-4.276h-7.53l-1.58,4.276H72.664L80.1,8.772h4l7.623,18.965Zm-6.972-7.53-2.6-6.973-2.51,6.973Zm9.018,7.53V8.772h5.671l3.44,12.922,3.347-12.922h5.764V27.644h-3.533V12.769l-3.719,14.875h-3.719L97.3,12.769V27.644H93.767Zm22.033,0V8.772h6.136a23.037,23.037,0,0,1,4.555.279,4.926,4.926,0,0,1,2.7,1.859,5.722,5.722,0,0,1,1.116,3.719,5.513,5.513,0,0,1-.651,2.882,5.248,5.248,0,0,1-1.58,1.859,6.226,6.226,0,0,1-1.952.93,21.492,21.492,0,0,1-4,.279h-2.51v7.158Zm3.812-15.711v5.392h2.045a10,10,0,0,0,2.975-.279,2.38,2.38,0,0,0,1.209-.93,2.809,2.809,0,0,0,.465-1.487,2.24,2.24,0,0,0-.651-1.673,2.416,2.416,0,0,0-1.487-.837,19.681,19.681,0,0,0-2.789-.093h-1.766Zm13.666,15.711V8.772h3.812V27.644h-3.812Zm24.543,0h-4.184l-1.673-4.276h-7.53l-1.58,4.276h-4.091l7.344-18.872h4l7.716,18.872Zm-7.065-7.53-2.6-6.973-2.51,6.973Zm9.111,7.53V8.772h8a15.331,15.331,0,0,1,4.369.465A4.646,4.646,0,0,1,174.462,11a5.308,5.308,0,0,1,.837,2.975,5.592,5.592,0,0,1-1.209,3.533,6.1,6.1,0,0,1-3.719,1.766,9.149,9.149,0,0,1,2.045,1.58,14.929,14.929,0,0,1,2.138,3.068l2.324,3.719h-4.555l-2.789-4.091a27.29,27.29,0,0,0-2.045-2.789,2.607,2.607,0,0,0-1.116-.744,5.208,5.208,0,0,0-1.952-.186h-.744v7.9Zm3.812-10.97h2.789a21.421,21.421,0,0,0,3.44-.186,2.538,2.538,0,0,0,1.116-.837,2.241,2.241,0,0,0,.372-1.395,2.881,2.881,0,0,0-.465-1.58,2.558,2.558,0,0,0-1.395-.744c-.279,0-1.209-.093-2.789-.093h-2.975v4.834ZM185.34,21.6l3.719-.372a4.457,4.457,0,0,0,1.395,2.789,4.164,4.164,0,0,0,2.789.837,4.743,4.743,0,0,0,2.789-.744,2.286,2.286,0,0,0,.93-1.859,1.482,1.482,0,0,0-.372-1.116,4.545,4.545,0,0,0-1.395-.837,27.471,27.471,0,0,0-3.068-.837A9.719,9.719,0,0,1,187.85,17.6a4.8,4.8,0,0,1-1.766-3.812,4.844,4.844,0,0,1,.837-2.7,5.366,5.366,0,0,1,2.324-1.952,8.882,8.882,0,0,1,3.719-.651,8.112,8.112,0,0,1,5.392,1.58,5.227,5.227,0,0,1,1.859,4.184l-3.812.186A4.191,4.191,0,0,0,195.38,12.3a3.577,3.577,0,0,0-2.417-.651,4.327,4.327,0,0,0-2.6.651,1.451,1.451,0,0,0-.651,1.209,1.325,1.325,0,0,0,.558,1.116,11.2,11.2,0,0,0,3.533,1.3,18.4,18.4,0,0,1,4.091,1.395,5.418,5.418,0,0,1,2.138,1.952,6.133,6.133,0,0,1,.744,2.975,5.189,5.189,0,0,1-.93,3.068,5.653,5.653,0,0,1-2.51,2.138,10.8,10.8,0,0,1-4.091.651,8.064,8.064,0,0,1-5.485-1.673A6.453,6.453,0,0,1,185.34,21.6Zm18.5,6.136V24.111h3.626v3.626Zm24.45,0h-4.184l-1.673-4.276H214.9l-1.58,4.276h-4l7.344-18.872h4l7.623,18.872Zm-7.066-7.53-2.6-6.973-2.51,6.973Zm9.018,7.53V24.111h3.626v3.626Z" transform="translate(-3.868 -0.591)" fill="#48b85e" fill-rule="evenodd"/>
  <path id="Trazado_2" data-name="Trazado 2" d="M76.9,38.491l.837-.093a1.056,1.056,0,0,0,.279.744,1.667,1.667,0,0,0,.651.465,3.342,3.342,0,0,0,1.023.186,2.866,2.866,0,0,0,.93-.093.854.854,0,0,0,.558-.372c.093-.186.186-.279.186-.465a.71.71,0,0,0-.186-.465,2,2,0,0,0-.651-.372,4.56,4.56,0,0,0-1.209-.279,4.517,4.517,0,0,1-1.3-.372,1.576,1.576,0,0,1-.744-.558,1.056,1.056,0,0,1-.279-.744,1.5,1.5,0,0,1,.279-.837,1.354,1.354,0,0,1,.837-.558,4.648,4.648,0,0,1,2.6,0,2.125,2.125,0,0,1,.93.651,2.784,2.784,0,0,1,.372.93l-.837.093a1.252,1.252,0,0,0-.465-.837,2.758,2.758,0,0,0-2.417,0,.7.7,0,0,0-.372.651.8.8,0,0,0,.279.558A4.483,4.483,0,0,0,79.6,37.1c.744.186,1.209.279,1.487.372a3.244,3.244,0,0,1,.837.558,1.394,1.394,0,0,1,0,1.673,1.839,1.839,0,0,1-.93.651,2.955,2.955,0,0,1-1.3.186,7.372,7.372,0,0,1-1.58-.186,2.769,2.769,0,0,1-1.023-.651,5.442,5.442,0,0,1-.186-1.209Zm6.694,1.859V34.586h4.927v.651h-4V37h3.812v.744H84.523V39.7h4.184v.651Zm6.322,0V34.586h3.068a4.529,4.529,0,0,1,1.395.186,1.446,1.446,0,0,1,.744.558,1.373,1.373,0,0,1-.186,1.859,2.771,2.771,0,0,1-1.487.558,1.514,1.514,0,0,1,.558.279,2.83,2.83,0,0,1,.744.744l1.209,1.58H94.843l-.93-1.209a9.008,9.008,0,0,0-.651-.837,1.633,1.633,0,0,0-.465-.372c-.093-.093-.279-.093-.372-.186H90.938v2.6Zm.93-3.161H92.8a2.591,2.591,0,0,0,.93-.093,1.185,1.185,0,0,0,.558-.372,1.321,1.321,0,0,0,.186-.558.7.7,0,0,0-.372-.651,1.983,1.983,0,0,0-1.116-.279H90.845v1.952Zm7.809,3.161h.93l2.7-5.764h-.93l-1.859,4.184a3.885,3.885,0,0,0-.372.93,3.885,3.885,0,0,0-.372-.93l-1.766-4.184H95.958l2.7,5.764Zm4.555,0V34.586h.93V40.35Zm7.344-1.952.93.186a2.317,2.317,0,0,1-1.023,1.395,2.806,2.806,0,0,1-1.766.465,3.324,3.324,0,0,1-1.766-.372,2.365,2.365,0,0,1-1.023-1.116,3.544,3.544,0,0,1,0-3.161,2.2,2.2,0,0,1,1.209-1.023,3.184,3.184,0,0,1,1.673-.372,3.56,3.56,0,0,1,1.766.465,1.973,1.973,0,0,1,.93,1.209l-.93.186a1.839,1.839,0,0,0-.651-.93,1.983,1.983,0,0,0-1.116-.279,2.7,2.7,0,0,0-1.3.279,1.64,1.64,0,0,0-.744.837,2.358,2.358,0,0,0-.186,1.116,2.969,2.969,0,0,0,.279,1.3,1.824,1.824,0,0,0,.837.837,2.574,2.574,0,0,0,1.209.279,2.135,2.135,0,0,0,1.3-.372,5.943,5.943,0,0,0,.372-.93Zm2.231,1.952V34.586h.93V40.35Zm2.231-2.789a2.756,2.756,0,0,1,.93-2.231,3.4,3.4,0,0,1,2.324-.837,3.183,3.183,0,0,1,1.673.372,2.583,2.583,0,0,1,1.116,1.116,2.849,2.849,0,0,1,.372,1.58,2.434,2.434,0,0,1-.465,1.58,2.2,2.2,0,0,1-1.209,1.023,3.4,3.4,0,0,1-1.673.372,3.773,3.773,0,0,1-1.766-.372,2.584,2.584,0,0,1-1.116-1.116,8.137,8.137,0,0,1-.186-1.487Zm.93,0a2.109,2.109,0,0,0,.651,1.673,2.6,2.6,0,0,0,1.673.558,2.24,2.24,0,0,0,1.673-.651,2.187,2.187,0,0,0,.651-1.766,2.573,2.573,0,0,0-.279-1.209,1.824,1.824,0,0,0-.837-.837,2.776,2.776,0,0,0-2.882.279,2.619,2.619,0,0,0-.651,1.952Zm6.415.93.837-.093a1.056,1.056,0,0,0,.279.744,1.667,1.667,0,0,0,.651.465,3.342,3.342,0,0,0,1.023.186,2.866,2.866,0,0,0,.93-.093.854.854,0,0,0,.558-.372c.093-.186.186-.279.186-.465a.71.71,0,0,0-.186-.465,2,2,0,0,0-.651-.372,4.56,4.56,0,0,0-1.209-.279,4.517,4.517,0,0,1-1.3-.372,1.576,1.576,0,0,1-.744-.558,1.056,1.056,0,0,1-.279-.744,1.5,1.5,0,0,1,.279-.837,1.354,1.354,0,0,1,.837-.558,4.648,4.648,0,0,1,2.6,0,2.125,2.125,0,0,1,.93.651,2.783,2.783,0,0,1,.372.93l-.837.093a1.252,1.252,0,0,0-.465-.837,2.758,2.758,0,0,0-2.417,0,.7.7,0,0,0-.372.651.8.8,0,0,0,.279.558,4.483,4.483,0,0,0,1.395.372c.744.186,1.209.279,1.487.372a3.245,3.245,0,0,1,.837.558,1.394,1.394,0,0,1,0,1.673,1.839,1.839,0,0,1-.93.651,2.955,2.955,0,0,1-1.3.186,7.373,7.373,0,0,1-1.58-.186,2.769,2.769,0,0,1-1.023-.651c0-.465-.186-.744-.186-1.209Zm8.088,1.859,2.6-5.764h.93l2.789,5.764h-1.023l-.837-1.766h-2.882l-.744,1.766Zm1.952-2.324h2.324l-.744-1.58c-.186-.465-.372-.93-.465-1.209a5.241,5.241,0,0,1-.372,1.116l-.744,1.673Zm8.367.093v-.651h2.882v2.138a4.71,4.71,0,0,1-1.395.651,3.853,3.853,0,0,1-1.487.186,4.162,4.162,0,0,1-1.859-.372,2.649,2.649,0,0,1-1.209-1.023,2.919,2.919,0,0,1,0-3.161,2.825,2.825,0,0,1,1.209-1.116,3.773,3.773,0,0,1,1.766-.372,5.487,5.487,0,0,1,1.3.186,1.581,1.581,0,0,1,.93.558,8.171,8.171,0,0,1,.558.93l-.837.186c-.093-.279-.186-.558-.372-.651a1.5,1.5,0,0,0-.651-.372,2.75,2.75,0,0,0-.93-.186,4.666,4.666,0,0,0-1.116.186,2.024,2.024,0,0,0-.744.465,2.465,2.465,0,0,0-.465.558,2.573,2.573,0,0,0-.279,1.209,2.7,2.7,0,0,0,.279,1.3,1.477,1.477,0,0,0,.93.744,2.969,2.969,0,0,0,1.3.279,4.666,4.666,0,0,0,1.116-.186,3.643,3.643,0,0,0,.837-.372V38.119h-1.766Zm4.277,2.231V34.586h3.068a4.529,4.529,0,0,1,1.395.186,1.445,1.445,0,0,1,.744.558,1.373,1.373,0,0,1-.186,1.859,2.771,2.771,0,0,1-1.487.558,1.514,1.514,0,0,1,.558.279,2.829,2.829,0,0,1,.744.744l1.209,1.58h-1.116l-.93-1.209a9.01,9.01,0,0,0-.651-.837,1.632,1.632,0,0,0-.465-.372c-.093-.093-.279-.093-.372-.186h-1.487v2.6Zm.93-3.161h1.952a2.591,2.591,0,0,0,.93-.093,1.185,1.185,0,0,0,.558-.372,1.322,1.322,0,0,0,.186-.558.7.7,0,0,0-.372-.651,1.983,1.983,0,0,0-1.116-.279h-2.138v1.952Zm5.671.372a2.756,2.756,0,0,1,.93-2.231,3.4,3.4,0,0,1,2.324-.837,3.184,3.184,0,0,1,1.673.372,2.584,2.584,0,0,1,1.116,1.116,2.849,2.849,0,0,1,.372,1.58,2.434,2.434,0,0,1-.465,1.58,2.2,2.2,0,0,1-1.209,1.023,3.4,3.4,0,0,1-1.673.372,3.773,3.773,0,0,1-1.766-.372,2.584,2.584,0,0,1-1.116-1.116,8.137,8.137,0,0,1-.186-1.487Zm.93,0a2.109,2.109,0,0,0,.651,1.673,2.6,2.6,0,0,0,1.673.558,2.24,2.24,0,0,0,1.673-.651,2.187,2.187,0,0,0,.651-1.766,2.574,2.574,0,0,0-.279-1.209,1.824,1.824,0,0,0-.837-.837,2.776,2.776,0,0,0-2.882.279,2.619,2.619,0,0,0-.651,1.952Zm6.787,2.789V34.586h2.6a2.891,2.891,0,0,1,1.023.093c.372.093.651.093.837.279a1.579,1.579,0,0,1,.558.558,2.22,2.22,0,0,1,.186.837,1.5,1.5,0,0,1-.558,1.209c-.372.372-1.023.465-2.045.465H160.2V40.35Zm.93-2.975h1.766a1.917,1.917,0,0,0,1.209-.279.846.846,0,0,0,.372-.744,1.344,1.344,0,0,0-.186-.651,1.945,1.945,0,0,0-.558-.372c-.186,0-.465-.093-.837-.093h-1.766v2.138Zm5.485,2.975V34.586H170.7v.651h-4V37h3.812v.744h-3.812V39.7h4.184v.651ZM177.025,38.4l.93.186a2.317,2.317,0,0,1-1.023,1.395,2.806,2.806,0,0,1-1.766.465,3.324,3.324,0,0,1-1.766-.372,2.365,2.365,0,0,1-1.023-1.116,3.544,3.544,0,0,1,0-3.161,2.2,2.2,0,0,1,1.209-1.023,3.184,3.184,0,0,1,1.673-.372,3.56,3.56,0,0,1,1.766.465,1.973,1.973,0,0,1,.93,1.209l-.93.186a1.839,1.839,0,0,0-.651-.93,1.983,1.983,0,0,0-1.116-.279,2.7,2.7,0,0,0-1.3.279,1.64,1.64,0,0,0-.744.837,2.358,2.358,0,0,0-.186,1.116,2.969,2.969,0,0,0,.279,1.3,1.824,1.824,0,0,0,.837.837,2.574,2.574,0,0,0,1.209.279,2.134,2.134,0,0,0,1.3-.372,8.758,8.758,0,0,1,.372-.93Zm6.508-3.812h.93v3.347a3.1,3.1,0,0,1-.279,1.395,1.824,1.824,0,0,1-.837.837,4.617,4.617,0,0,1-3.161,0,1.479,1.479,0,0,1-.837-.837,3.26,3.26,0,0,1-.279-1.487V34.493H180V37.84a3.467,3.467,0,0,0,.186,1.116.838.838,0,0,0,.558.558,2.87,2.87,0,0,0,1.023.186,1.93,1.93,0,0,0,1.394-.372,2.02,2.02,0,0,0,.465-1.487V34.586Zm1.58,5.764,2.6-5.764h.93l2.789,5.764h-1.023l-.837-1.766h-2.882l-.744,1.766Zm2.045-2.324h2.324l-.744-1.58c-.186-.465-.372-.93-.465-1.209a5.24,5.24,0,0,1-.372,1.116l-.744,1.673Zm5.113,2.324V34.586h3.068a4.529,4.529,0,0,1,1.394.186,1.446,1.446,0,0,1,.744.558,1.373,1.373,0,0,1-.186,1.859,2.771,2.771,0,0,1-1.487.558,1.514,1.514,0,0,1,.558.279,2.829,2.829,0,0,1,.744.744l1.209,1.58H197.2l-.93-1.209a9.012,9.012,0,0,0-.651-.837,1.632,1.632,0,0,0-.465-.372c-.093-.093-.279-.093-.372-.186H193.2v2.6Zm.93-3.161h1.952a2.591,2.591,0,0,0,.93-.093,1.185,1.185,0,0,0,.558-.372,1.321,1.321,0,0,0,.186-.558.7.7,0,0,0-.372-.651,1.983,1.983,0,0,0-1.116-.279H193.2v1.952Zm6.136,3.161V34.586h.93V40.35Zm2.231-2.789a2.756,2.756,0,0,1,.93-2.231,3.4,3.4,0,0,1,2.324-.837,3.184,3.184,0,0,1,1.673.372,2.584,2.584,0,0,1,1.116,1.116,2.849,2.849,0,0,1,.372,1.58,2.434,2.434,0,0,1-.465,1.58,2.2,2.2,0,0,1-1.209,1.023,3.4,3.4,0,0,1-1.673.372,3.773,3.773,0,0,1-1.766-.372,2.584,2.584,0,0,1-1.116-1.116,8.14,8.14,0,0,1-.186-1.487Zm.93,0a2.109,2.109,0,0,0,.651,1.673,2.6,2.6,0,0,0,1.673.558,2.24,2.24,0,0,0,1.673-.651,2.187,2.187,0,0,0,.651-1.766,2.573,2.573,0,0,0-.279-1.209,1.825,1.825,0,0,0-.837-.837,2.776,2.776,0,0,0-2.882.279,2.619,2.619,0,0,0-.651,1.952Zm6.508.93.837-.093a1.056,1.056,0,0,0,.279.744,1.668,1.668,0,0,0,.651.465,3.342,3.342,0,0,0,1.023.186,2.865,2.865,0,0,0,.93-.093.854.854,0,0,0,.558-.372c.093-.186.186-.279.186-.465a.71.71,0,0,0-.186-.465,2,2,0,0,0-.651-.372,4.561,4.561,0,0,0-1.209-.279,4.517,4.517,0,0,1-1.3-.372,1.576,1.576,0,0,1-.744-.558,1.056,1.056,0,0,1-.279-.744,1.5,1.5,0,0,1,.279-.837,1.354,1.354,0,0,1,.837-.558,4.648,4.648,0,0,1,2.6,0,2.125,2.125,0,0,1,.93.651,2.784,2.784,0,0,1,.372.93l-.837.093a1.252,1.252,0,0,0-.465-.837,2.758,2.758,0,0,0-2.417,0,.7.7,0,0,0-.372.651.8.8,0,0,0,.279.558,4.483,4.483,0,0,0,1.394.372c.744.186,1.209.279,1.487.372a3.244,3.244,0,0,1,.837.558,1.395,1.395,0,0,1,0,1.673,1.839,1.839,0,0,1-.93.651,2.955,2.955,0,0,1-1.3.186,7.372,7.372,0,0,1-1.58-.186,2.769,2.769,0,0,1-1.023-.651A5.441,5.441,0,0,1,209.006,38.491Z" transform="translate(-5.408 -2.419)" fill="#48b85e" fill-rule="evenodd"/>
  <path id="Trazado_3" data-name="Trazado 3" d="M32.931,19.522c0,3.161-.186,6.322-.279,9.483,0,4.091-3.161,3.068-5.95,3.161h-.279l-.651.093c-1.116,0-1.673-1.859,0-1.952l.465-.093h4.369c.279-.186.279-.093.465-.465v-.372c0-3.254.186-6.508.279-9.762v-.744a3.3,3.3,0,0,0-.186-.93l-.093-.279a4,4,0,0,0-.837-.93l-.186-.093a2.258,2.258,0,0,0-1.116,0l-.279.093-.279.093A6.415,6.415,0,0,0,26.888,18.5l-.465.465a11.394,11.394,0,0,0-.651,2.975v2.417a3.486,3.486,0,0,0,.093,1.023c.093.558-1.673,1.116-1.859,0V22.59l.093-.837a20.134,20.134,0,0,1,.372-2.324l.186-.651.279-.651.279-.558.279-.558.372-.465a6.311,6.311,0,0,1,1.116-1.116c3.44-2.417,5.95.744,5.95,4.091Zm-9.669-2.51c.651.465,2.138-.558,1.487-1.209l-.837-.837-.837-.465-.465-.186a3.862,3.862,0,0,0-2.882,0,4.054,4.054,0,0,0-1.766,1.766,6.174,6.174,0,0,0-.372,4.276l.186.558.186.558c.837,1.766,2.138,3.068,2.51,5.02l.093.465v.93a4.743,4.743,0,0,1-1.58,3.254l-.186.186-.186.093-.186.093H17.87a2.273,2.273,0,0,1-1.023-.837l-.279-.651-.372-.558c-.465-.651-1.673-.093-1.487.744l.186.744.279.558.372.465.372.372a3.17,3.17,0,0,0,2.789.837L19.172,33l.465-.186a6.588,6.588,0,0,0,2.7-4.834V26.773l-.093-.651c-.372-2.138-1.487-3.254-2.417-5.02l-.186-.465-.186-.465c-1.116-3.812,1.395-5.392,3.812-3.161Zm1.209-7.158c.651.558,1.952-.465,1.487-1.023L24.564,7.157c-3.533-2.975-6.322-2.324-9.2,1.209l-.837,1.3-.744,1.395a35.026,35.026,0,0,0-2.138,6.694l-.372,1.859c-.651,4.741-.651,9.3,1.116,13.852l.744,1.3c2.231,2.882,4.462,3.347,7.9,2.789l1.766-.651c1.3-.372.558-2.231-.465-1.859-2.7.93-4.741,1.395-6.973-.558l-.651-.837-.558-1.023c-1.673-4.091-1.487-8.367-.93-12.643L13.5,18.22a30.308,30.308,0,0,1,2.7-7.53C18.893,6.321,20.938,6.414,24.471,9.853Z" transform="translate(-0.765 -0.371)" fill="#48b85e" fill-rule="evenodd"/>
  <path id="Trazado_4" data-name="Trazado 4" d="M21.011,42.765A21.189,21.189,0,0,1,0,21.382,21.189,21.189,0,0,1,21.011,0,21.189,21.189,0,0,1,42.021,21.382,21.189,21.189,0,0,1,21.011,42.765Zm0-40.905A19.385,19.385,0,0,0,1.859,21.382,19.385,19.385,0,0,0,21.011,40.905,19.385,19.385,0,0,0,40.162,21.382,19.325,19.325,0,0,0,21.011,1.859Z" transform="translate(0 0)" fill="#48b85e"/>
</svg>
