<svg xmlns="http://www.w3.org/2000/svg" width="198.667" height="36.939" viewBox="0 0 198.667 36.939">
  <g id="Grupo_1" data-name="Grupo 1" transform="translate(0 0)">
    <path id="Trazado_1" data-name="Trazado 1" d="M66,19.08l3.212,1.044A6.908,6.908,0,0,1,66.8,24.059a6.793,6.793,0,0,1-4.336,1.285,7.036,7.036,0,0,1-5.38-2.248A8.647,8.647,0,0,1,55,16.992a9.146,9.146,0,0,1,2.088-6.344A7.034,7.034,0,0,1,62.629,8.4a6.807,6.807,0,0,1,4.9,1.767,7.056,7.056,0,0,1,1.686,2.971l-3.292.8a3.062,3.062,0,0,0-1.2-2.008,3.59,3.59,0,0,0-2.248-.723A3.782,3.782,0,0,0,59.5,12.5a6.59,6.59,0,0,0-1.124,4.256A6.954,6.954,0,0,0,59.5,21.168a3.513,3.513,0,0,0,2.891,1.285,3.227,3.227,0,0,0,2.248-.8A4.581,4.581,0,0,0,66,19.08ZM86.719,25.1H83.106L81.66,21.409h-6.5L73.791,25.1H70.257L76.681,8.721h3.453L86.719,25.1ZM80.7,18.6l-2.248-6.023L76.28,18.6Zm7.789,6.5V8.721h4.9l2.971,11.162L99.246,8.721h4.979v16.3h-3.051V12.174L97.961,25.022H94.749L91.537,12.174V25.022H88.486Zm19.032,0V8.721h5.3a19.9,19.9,0,0,1,3.935.241,4.255,4.255,0,0,1,2.329,1.606,4.943,4.943,0,0,1,.964,3.212,4.762,4.762,0,0,1-.562,2.489,4.533,4.533,0,0,1-1.365,1.606,5.378,5.378,0,0,1-1.686.8,18.564,18.564,0,0,1-3.453.241H110.81V25.1Zm3.292-13.571v4.658h1.767a8.635,8.635,0,0,0,2.57-.241,2.056,2.056,0,0,0,1.044-.8,2.427,2.427,0,0,0,.4-1.285,1.935,1.935,0,0,0-.562-1.445,2.087,2.087,0,0,0-1.285-.723,17,17,0,0,0-2.409-.08H110.81Zm11.8,13.571V8.721h3.292v16.3h-3.292Zm21.2,0H140.2l-1.445-3.694h-6.5L130.885,25.1h-3.533L133.7,8.8h3.453l6.665,16.3Zm-6.1-6.5-2.248-6.023L133.294,18.6Zm7.87,6.5V8.721h6.906a13.242,13.242,0,0,1,3.774.4,4.014,4.014,0,0,1,1.927,1.526,4.585,4.585,0,0,1,.723,2.57,4.83,4.83,0,0,1-1.044,3.051,5.271,5.271,0,0,1-3.212,1.526,7.9,7.9,0,0,1,1.767,1.365,12.9,12.9,0,0,1,1.847,2.65l2.008,3.212h-3.935l-2.409-3.533a23.572,23.572,0,0,0-1.767-2.409,2.252,2.252,0,0,0-.964-.642,4.5,4.5,0,0,0-1.686-.161h-.642V25.1Zm3.292-9.476h2.409a18.5,18.5,0,0,0,2.971-.161,2.192,2.192,0,0,0,.964-.723,1.935,1.935,0,0,0,.321-1.2,2.489,2.489,0,0,0-.4-1.365,2.209,2.209,0,0,0-1.2-.642c-.241,0-1.044-.08-2.409-.08h-2.57v4.176Zm18.71,4.176,3.212-.321a3.849,3.849,0,0,0,1.2,2.409,3.6,3.6,0,0,0,2.409.723,4.1,4.1,0,0,0,2.409-.642,1.975,1.975,0,0,0,.8-1.606,1.28,1.28,0,0,0-.321-.964,3.926,3.926,0,0,0-1.2-.723,23.728,23.728,0,0,0-2.65-.723,8.4,8.4,0,0,1-3.694-1.606,4.141,4.141,0,0,1-1.526-3.292,4.184,4.184,0,0,1,.723-2.329,4.635,4.635,0,0,1,2.008-1.686,7.672,7.672,0,0,1,3.212-.562,7.006,7.006,0,0,1,4.658,1.365,4.515,4.515,0,0,1,1.606,3.614l-3.292.161a3.62,3.62,0,0,0-.883-1.847,3.089,3.089,0,0,0-2.088-.562,3.737,3.737,0,0,0-2.248.562,1.253,1.253,0,0,0-.562,1.044,1.145,1.145,0,0,0,.482.964,9.672,9.672,0,0,0,3.051,1.124,15.893,15.893,0,0,1,3.533,1.2,4.679,4.679,0,0,1,1.847,1.686,5.3,5.3,0,0,1,.642,2.57,4.482,4.482,0,0,1-.8,2.65,4.883,4.883,0,0,1-2.168,1.847,9.325,9.325,0,0,1-3.533.562,6.965,6.965,0,0,1-4.738-1.445,5.574,5.574,0,0,1-2.088-4.176Zm15.98,5.3V21.971h3.132V25.1Zm21.119,0h-3.614l-1.445-3.694h-6.5L191.754,25.1H188.3l6.344-16.3H198.1l6.585,16.3Zm-6.1-6.5-2.248-6.023L194.163,18.6Zm7.789,6.5V21.971H209.5V25.1Z" transform="translate(-10.834 -1.655)" fill="#fff" fill-rule="evenodd"/>
    <path id="Trazado_2" data-name="Trazado 2" d="M76.9,37.933l.723-.08a.912.912,0,0,0,.241.642,1.44,1.44,0,0,0,.562.4,2.887,2.887,0,0,0,.883.161,2.475,2.475,0,0,0,.8-.08.737.737,0,0,0,.482-.321c.08-.161.161-.241.161-.4a.613.613,0,0,0-.161-.4,1.723,1.723,0,0,0-.562-.321,3.939,3.939,0,0,0-1.044-.241,3.9,3.9,0,0,1-1.124-.321,1.361,1.361,0,0,1-.642-.482.912.912,0,0,1-.241-.642,1.3,1.3,0,0,1,.241-.723,1.169,1.169,0,0,1,.723-.482,4.015,4.015,0,0,1,2.248,0,1.836,1.836,0,0,1,.8.562,2.4,2.4,0,0,1,.321.8l-.723.08a1.081,1.081,0,0,0-.4-.723,2.382,2.382,0,0,0-2.088,0,.606.606,0,0,0-.321.562.694.694,0,0,0,.241.482,3.872,3.872,0,0,0,1.2.321c.642.161,1.044.241,1.285.321a2.8,2.8,0,0,1,.723.482,1.2,1.2,0,0,1,0,1.445,1.589,1.589,0,0,1-.8.562,2.552,2.552,0,0,1-1.124.161,6.368,6.368,0,0,1-1.365-.161,2.392,2.392,0,0,1-.883-.562,4.7,4.7,0,0,1-.161-1.044Zm5.782,1.606V34.561h4.256v.562H83.485v1.526h3.292v.642H83.485v1.686H87.1v.562Zm5.461,0V34.561h2.65a3.912,3.912,0,0,1,1.2.161,1.249,1.249,0,0,1,.642.482,1.186,1.186,0,0,1-.161,1.606,2.394,2.394,0,0,1-1.285.482,1.308,1.308,0,0,1,.482.241,2.444,2.444,0,0,1,.642.642l1.044,1.365H92.4L91.6,38.5a7.778,7.778,0,0,0-.562-.723,1.41,1.41,0,0,0-.4-.321c-.08-.08-.241-.08-.321-.161H89.026v2.248Zm.8-2.73h1.686a2.238,2.238,0,0,0,.8-.08,1.024,1.024,0,0,0,.482-.321,1.141,1.141,0,0,0,.161-.482.606.606,0,0,0-.321-.562,1.713,1.713,0,0,0-.964-.241H88.945v1.686Zm6.745,2.73h.8l2.329-4.979h-.8l-1.606,3.614a3.355,3.355,0,0,0-.321.8,3.356,3.356,0,0,0-.321-.8l-1.526-3.614h-.883l2.329,4.979Zm3.935,0V34.561h.8v4.979Zm6.344-1.686.8.161a2,2,0,0,1-.883,1.2,2.424,2.424,0,0,1-1.526.4,2.871,2.871,0,0,1-1.526-.321,2.043,2.043,0,0,1-.883-.964,3.061,3.061,0,0,1,0-2.73A1.9,1.9,0,0,1,103,34.721a2.75,2.75,0,0,1,1.445-.321,3.075,3.075,0,0,1,1.526.4,1.7,1.7,0,0,1,.8,1.044l-.8.161a1.589,1.589,0,0,0-.562-.8,1.712,1.712,0,0,0-.964-.241,2.332,2.332,0,0,0-1.124.241,1.417,1.417,0,0,0-.642.723,2.037,2.037,0,0,0-.161.964,2.565,2.565,0,0,0,.241,1.124,1.576,1.576,0,0,0,.723.723,2.223,2.223,0,0,0,1.044.241,1.844,1.844,0,0,0,1.124-.321,5.134,5.134,0,0,0,.321-.8Zm1.927,1.686V34.561h.8v4.979Zm1.927-2.409a2.381,2.381,0,0,1,.8-1.927,2.936,2.936,0,0,1,2.008-.723,2.75,2.75,0,0,1,1.445.321,2.231,2.231,0,0,1,.964.964,2.46,2.46,0,0,1,.321,1.365,2.1,2.1,0,0,1-.4,1.365,1.9,1.9,0,0,1-1.044.883,2.94,2.94,0,0,1-1.445.321,3.259,3.259,0,0,1-1.526-.321,2.232,2.232,0,0,1-.964-.964,7.029,7.029,0,0,1-.161-1.285Zm.8,0a1.821,1.821,0,0,0,.562,1.445,2.242,2.242,0,0,0,1.445.482,1.935,1.935,0,0,0,1.445-.562,1.889,1.889,0,0,0,.562-1.526,2.222,2.222,0,0,0-.241-1.044,1.576,1.576,0,0,0-.723-.723,2.4,2.4,0,0,0-2.489.241,2.262,2.262,0,0,0-.562,1.686Zm5.541.8.723-.08a.912.912,0,0,0,.241.642,1.44,1.44,0,0,0,.562.4,2.886,2.886,0,0,0,.883.161,2.475,2.475,0,0,0,.8-.08.737.737,0,0,0,.482-.321c.08-.161.161-.241.161-.4a.613.613,0,0,0-.161-.4,1.724,1.724,0,0,0-.562-.321,3.939,3.939,0,0,0-1.044-.241,3.9,3.9,0,0,1-1.124-.321,1.362,1.362,0,0,1-.642-.482.912.912,0,0,1-.241-.642,1.3,1.3,0,0,1,.241-.723,1.169,1.169,0,0,1,.723-.482,4.015,4.015,0,0,1,2.248,0,1.836,1.836,0,0,1,.8.562,2.4,2.4,0,0,1,.321.8l-.723.08a1.081,1.081,0,0,0-.4-.723,2.382,2.382,0,0,0-2.088,0,.606.606,0,0,0-.321.562.694.694,0,0,0,.241.482,3.872,3.872,0,0,0,1.2.321c.642.161,1.044.241,1.285.321a2.8,2.8,0,0,1,.723.482,1.2,1.2,0,0,1,0,1.445,1.589,1.589,0,0,1-.8.562,2.552,2.552,0,0,1-1.124.161,6.368,6.368,0,0,1-1.365-.161,2.392,2.392,0,0,1-.883-.562c0-.4-.161-.642-.161-1.044Zm6.986,1.606,2.248-4.979h.8l2.409,4.979h-.883l-.723-1.526h-2.489l-.642,1.526Zm1.686-2.008h2.008l-.642-1.365c-.161-.4-.321-.8-.4-1.044a4.528,4.528,0,0,1-.321.964l-.642,1.445Zm7.227.08V37.05h2.489V38.9a4.068,4.068,0,0,1-1.2.562,3.328,3.328,0,0,1-1.285.161,3.6,3.6,0,0,1-1.606-.321,2.288,2.288,0,0,1-1.044-.883,2.521,2.521,0,0,1,0-2.73,2.44,2.44,0,0,1,1.044-.964,3.259,3.259,0,0,1,1.526-.321,4.739,4.739,0,0,1,1.124.161,1.366,1.366,0,0,1,.8.482,7.057,7.057,0,0,1,.482.8l-.723.161c-.08-.241-.161-.482-.321-.562a1.294,1.294,0,0,0-.562-.321,2.375,2.375,0,0,0-.8-.161,4.03,4.03,0,0,0-.964.161,1.748,1.748,0,0,0-.642.4,2.129,2.129,0,0,0-.4.482,2.222,2.222,0,0,0-.241,1.044,2.332,2.332,0,0,0,.241,1.124,1.276,1.276,0,0,0,.8.642,2.565,2.565,0,0,0,1.124.241,4.03,4.03,0,0,0,.964-.161,3.147,3.147,0,0,0,.723-.321v-.964h-1.526Zm3.694,1.927V34.561h2.65a3.912,3.912,0,0,1,1.2.161,1.249,1.249,0,0,1,.642.482,1.186,1.186,0,0,1-.161,1.606,2.393,2.393,0,0,1-1.285.482,1.308,1.308,0,0,1,.482.241,2.444,2.444,0,0,1,.642.642l1.044,1.365h-.964l-.8-1.044a7.78,7.78,0,0,0-.562-.723,1.41,1.41,0,0,0-.4-.321c-.08-.08-.241-.08-.321-.161h-1.285v2.248Zm.8-2.73h1.686a2.238,2.238,0,0,0,.8-.08,1.024,1.024,0,0,0,.482-.321,1.142,1.142,0,0,0,.161-.482.606.606,0,0,0-.321-.562,1.712,1.712,0,0,0-.964-.241h-1.847v1.686Zm4.9.321a2.381,2.381,0,0,1,.8-1.927,2.936,2.936,0,0,1,2.008-.723,2.75,2.75,0,0,1,1.445.321,2.232,2.232,0,0,1,.964.964A2.461,2.461,0,0,1,147,37.13a2.1,2.1,0,0,1-.4,1.365,1.9,1.9,0,0,1-1.044.883,2.94,2.94,0,0,1-1.445.321,3.259,3.259,0,0,1-1.526-.321,2.232,2.232,0,0,1-.964-.964,7.028,7.028,0,0,1-.161-1.285Zm.8,0a1.821,1.821,0,0,0,.562,1.445,2.242,2.242,0,0,0,1.445.482,1.935,1.935,0,0,0,1.445-.562,1.889,1.889,0,0,0,.562-1.526,2.223,2.223,0,0,0-.241-1.044,1.576,1.576,0,0,0-.723-.723,2.4,2.4,0,0,0-2.489.241,2.262,2.262,0,0,0-.562,1.686Zm5.862,2.409V34.561h2.248a2.5,2.5,0,0,1,.883.08c.321.08.562.08.723.241a1.364,1.364,0,0,1,.482.482,1.918,1.918,0,0,1,.161.723,1.3,1.3,0,0,1-.482,1.044c-.321.321-.883.4-1.767.4H148.85v2.008Zm.8-2.57h1.526a1.656,1.656,0,0,0,1.044-.241.73.73,0,0,0,.321-.642,1.161,1.161,0,0,0-.161-.562,1.68,1.68,0,0,0-.482-.321c-.161,0-.4-.08-.723-.08h-1.526V36.97Zm4.738,2.57V34.561h4.256v.562h-3.453v1.526h3.292v.642h-3.292v1.686h3.614v.562Zm9.717-1.686.8.161a2,2,0,0,1-.883,1.2,2.424,2.424,0,0,1-1.526.4,2.871,2.871,0,0,1-1.526-.321,2.043,2.043,0,0,1-.883-.964,3.061,3.061,0,0,1,0-2.73,1.9,1.9,0,0,1,1.044-.883,2.75,2.75,0,0,1,1.445-.321,3.075,3.075,0,0,1,1.526.4,1.7,1.7,0,0,1,.8,1.044l-.8.161a1.589,1.589,0,0,0-.562-.8,1.713,1.713,0,0,0-.964-.241,2.332,2.332,0,0,0-1.124.241,1.417,1.417,0,0,0-.642.723,2.037,2.037,0,0,0-.161.964,2.565,2.565,0,0,0,.241,1.124,1.576,1.576,0,0,0,.723.723,2.223,2.223,0,0,0,1.044.241,1.844,1.844,0,0,0,1.124-.321,7.565,7.565,0,0,1,.321-.8Zm5.621-3.292h.8v2.891a2.682,2.682,0,0,1-.241,1.2,1.576,1.576,0,0,1-.723.723,3.988,3.988,0,0,1-2.73,0,1.278,1.278,0,0,1-.723-.723,2.816,2.816,0,0,1-.241-1.285V34.48h.8v2.891a3,3,0,0,0,.161.964.724.724,0,0,0,.482.482,2.479,2.479,0,0,0,.883.161,1.667,1.667,0,0,0,1.2-.321,1.745,1.745,0,0,0,.4-1.285V34.561Zm1.365,4.979,2.248-4.979h.8l2.409,4.979h-.883l-.723-1.526h-2.489l-.642,1.526Zm1.767-2.008h2.008l-.642-1.365c-.161-.4-.321-.8-.4-1.044a4.526,4.526,0,0,1-.321.964l-.642,1.445Zm4.417,2.008V34.561h2.65a3.912,3.912,0,0,1,1.2.161,1.249,1.249,0,0,1,.642.482,1.186,1.186,0,0,1-.161,1.606,2.394,2.394,0,0,1-1.285.482,1.308,1.308,0,0,1,.482.241,2.444,2.444,0,0,1,.642.642l1.044,1.365h-.964l-.8-1.044a7.783,7.783,0,0,0-.562-.723,1.41,1.41,0,0,0-.4-.321c-.08-.08-.241-.08-.321-.161h-1.365v2.248Zm.8-2.73h1.686a2.238,2.238,0,0,0,.8-.08,1.024,1.024,0,0,0,.482-.321,1.141,1.141,0,0,0,.161-.482.606.606,0,0,0-.321-.562,1.713,1.713,0,0,0-.964-.241h-1.847v1.686Zm5.3,2.73V34.561h.8v4.979Zm1.927-2.409a2.381,2.381,0,0,1,.8-1.927,2.936,2.936,0,0,1,2.008-.723,2.75,2.75,0,0,1,1.445.321,2.232,2.232,0,0,1,.964.964,2.461,2.461,0,0,1,.321,1.365,2.1,2.1,0,0,1-.4,1.365,1.9,1.9,0,0,1-1.044.883,2.94,2.94,0,0,1-1.445.321,3.259,3.259,0,0,1-1.526-.321,2.232,2.232,0,0,1-.964-.964,7.03,7.03,0,0,1-.161-1.285Zm.8,0a1.821,1.821,0,0,0,.562,1.445,2.242,2.242,0,0,0,1.445.482,1.935,1.935,0,0,0,1.445-.562,1.889,1.889,0,0,0,.562-1.526,2.223,2.223,0,0,0-.241-1.044,1.576,1.576,0,0,0-.723-.723,2.4,2.4,0,0,0-2.489.241,2.262,2.262,0,0,0-.562,1.686Zm5.621.8.723-.08a.912.912,0,0,0,.241.642,1.44,1.44,0,0,0,.562.4,2.887,2.887,0,0,0,.883.161,2.475,2.475,0,0,0,.8-.08.737.737,0,0,0,.482-.321c.08-.161.161-.241.161-.4a.614.614,0,0,0-.161-.4,1.723,1.723,0,0,0-.562-.321,3.94,3.94,0,0,0-1.044-.241,3.9,3.9,0,0,1-1.124-.321,1.362,1.362,0,0,1-.642-.482.912.912,0,0,1-.241-.642,1.3,1.3,0,0,1,.241-.723,1.169,1.169,0,0,1,.723-.482,4.015,4.015,0,0,1,2.248,0,1.836,1.836,0,0,1,.8.562,2.4,2.4,0,0,1,.321.8l-.723.08a1.081,1.081,0,0,0-.4-.723,2.382,2.382,0,0,0-2.088,0,.606.606,0,0,0-.321.562.694.694,0,0,0,.241.482,3.872,3.872,0,0,0,1.2.321c.642.161,1.044.241,1.285.321a2.8,2.8,0,0,1,.723.482,1.2,1.2,0,0,1,0,1.445,1.589,1.589,0,0,1-.8.562,2.552,2.552,0,0,1-1.124.161,6.368,6.368,0,0,1-1.365-.161,2.392,2.392,0,0,1-.883-.562A4.7,4.7,0,0,1,191.009,37.933Z" transform="translate(-15.148 -6.776)" fill="#fff" fill-rule="evenodd"/>
    <path id="Trazado_3" data-name="Trazado 3" d="M29.926,17.581c0,2.73-.161,5.461-.241,8.191,0,3.533-2.73,2.65-5.139,2.73H24.3l-.562.08c-.964,0-1.445-1.606,0-1.686l.4-.08h3.774c.241-.161.241-.08.4-.4v-.321c0-2.811.161-5.621.241-8.432v-.642a2.853,2.853,0,0,0-.161-.8l-.08-.241a3.452,3.452,0,0,0-.723-.8l-.161-.08a1.95,1.95,0,0,0-.964,0l-.241.08-.241.08A5.541,5.541,0,0,0,24.706,16.7l-.4.4a9.842,9.842,0,0,0-.562,2.57v2.088a3.011,3.011,0,0,0,.08.883c.08.482-1.445.964-1.606,0V20.231l.08-.723a17.392,17.392,0,0,1,.321-2.008l.161-.562.241-.562.241-.482.241-.482.321-.4a5.451,5.451,0,0,1,.964-.964c2.971-2.088,5.139.642,5.139,3.533Zm-8.351-2.168c.562.4,1.847-.482,1.285-1.044l-.723-.723-.723-.4-.4-.161a3.336,3.336,0,0,0-2.489,0A3.5,3.5,0,0,0,17,14.609a5.333,5.333,0,0,0-.321,3.694l.161.482.161.482c.723,1.526,1.847,2.65,2.168,4.336l.08.4v.8a4.1,4.1,0,0,1-1.365,2.811l-.161.161-.161.08-.161.08h-.482a1.963,1.963,0,0,1-.883-.723l-.241-.562-.321-.482c-.4-.562-1.445-.08-1.285.642l.161.642.241.482.321.4.321.321a2.738,2.738,0,0,0,2.409.723l.4-.161.4-.161a5.69,5.69,0,0,0,2.329-4.176V23.844l-.08-.562c-.321-1.847-1.285-2.811-2.088-4.336l-.161-.4-.161-.4c-.964-3.292,1.2-4.657,3.292-2.73Zm1.044-6.183c.562.482,1.686-.4,1.285-.883L22.7,6.9c-3.051-2.57-5.461-2.008-7.95,1.044l-.723,1.124-.642,1.2a30.254,30.254,0,0,0-1.847,5.782l-.321,1.606a23.329,23.329,0,0,0,.964,11.965l.642,1.124c1.927,2.489,3.854,2.891,6.826,2.409l1.526-.562c1.124-.321.482-1.927-.4-1.606-2.329.8-4.1,1.2-6.023-.482l-.562-.723L13.7,28.9c-1.445-3.533-1.285-7.227-.8-10.921l.241-1.526a26.179,26.179,0,0,1,2.329-6.5C17.8,6.178,19.567,6.258,22.618,9.229Z" transform="translate(-2.141 -1.038)" fill="#fff" fill-rule="evenodd"/>
    <path id="Trazado_4" data-name="Trazado 4" d="M18.148,36.939A18.3,18.3,0,0,1,0,18.469,18.3,18.3,0,0,1,18.148,0,18.3,18.3,0,0,1,36.3,18.469,18.3,18.3,0,0,1,18.148,36.939Zm0-35.333A16.744,16.744,0,0,0,1.606,18.469,16.744,16.744,0,0,0,18.148,35.333,16.744,16.744,0,0,0,34.69,18.469,16.692,16.692,0,0,0,18.148,1.606Z" transform="translate(0 0)" fill="#fff"/>
  </g>
</svg>
