<svg xmlns="http://www.w3.org/2000/svg" width="27.333" height="27.333" viewBox="0 0 27.333 27.333">
  <g id="Grupo_66" data-name="Grupo 66" transform="translate(-369.805 -261.695)">
    <path id="Trazado_644" data-name="Trazado 644" d="M389.6,261.7H377.348a7.552,7.552,0,0,0-7.543,7.543v12.247a7.552,7.552,0,0,0,7.543,7.543H389.6a7.551,7.551,0,0,0,7.543-7.543V269.238A7.551,7.551,0,0,0,389.6,261.7Zm5.118,19.79A5.124,5.124,0,0,1,389.6,286.6H377.348a5.124,5.124,0,0,1-5.118-5.118V269.238a5.124,5.124,0,0,1,5.118-5.118H389.6a5.124,5.124,0,0,1,5.118,5.118v12.247Z" fill="#fff"/>
    <path id="Trazado_645" data-name="Trazado 645" d="M383.472,268.319a7.043,7.043,0,1,0,7.043,7.043A7.05,7.05,0,0,0,383.472,268.319Zm0,11.66a4.618,4.618,0,1,1,4.618-4.617A4.622,4.622,0,0,1,383.472,279.979Z" fill="#fff"/>
    <path id="Trazado_646" data-name="Trazado 646" d="M390.81,266.262a1.779,1.779,0,1,0,1.258.521A1.783,1.783,0,0,0,390.81,266.262Z" fill="#fff"/>
  </g>
</svg>
